<svg xmlns="http://www.w3.org/2000/svg" id="Capa_1" viewBox="0 0 200 200"><g><path d="M80.18,108.75c-5.35,.39-9.12-4.32-8.99-8.82,.06-2.27,1.1-4.12,2.4-5.89,2.73-3.7,5.45-7.41,8.17-11.12,3.04-4.15,6.07-8.3,9.1-12.46,2.65-3.64,5.29-7.29,7.94-10.94,2.73-3.77,5.47-7.53,8.2-11.3,1.95-2.69,3.83-5.43,5.83-8.09,2.79-3.72,6.31-4.71,10.71-3.12,2.87,1.04,4.34,3.31,5.03,6.36,.69,3.04-.58,5.3-2.1,7.56-1.28,1.9-2.68,3.71-4.04,5.55-1.34,1.8-2.71,3.6-4.04,5.41-1.96,2.67-3.86,5.38-5.82,8.05-2.3,3.14-4.53,6.33-6.92,9.42-2.05,2.66-3.72,5.62-5.83,8.23-1.68,2.09-3.22,4.28-4.81,6.42-2.6,3.49-5.1,7.06-7.68,10.57-1.39,1.89-2.89,3.35-5.17,4.01-.76,.22-1.48,0-1.97,.15Z"></path><path d="M105.81,116.98c-3.99,.31-7.58-2.72-8.54-6.48-.8-3.13,.29-5.89,2.2-8.42,2.56-3.4,4.98-6.91,7.54-10.31,1.63-2.17,3.16-4.41,5.98-5.38,3.45-1.19,7.84,.27,9.88,3.29,.91,1.35,1.5,2.92,1.47,4.83-.05,2.55-1.14,4.4-2.51,6.3-1.78,2.47-3.4,5.07-5.28,7.46-1.54,1.96-2.78,4.16-4.43,6-1.62,1.8-3.75,2.91-6.3,2.7Z"></path><path d="M75.71,50.43c-.36-2.71,1.32-4.79,2.82-6.88,2.93-4.09,5.99-8.09,8.94-12.16,1.3-1.78,3.1-2.83,5.14-3.14,3.05-.46,5.9,.27,8.09,2.65,1.38,1.51,2.05,3.23,2.11,5.37,.06,1.94-.31,3.66-1.34,5.17-2.2,3.21-4.48,6.37-6.83,9.47-1.46,1.94-2.78,3.99-4.44,5.8-2.21,2.41-6.16,3.1-9.21,1.84-3.1-1.28-5.65-4.76-5.29-8.12Z"></path><path d="M68.51,37.2c-4.93-.2-8.67-3.82-8.65-8.81,.02-4.67,3.46-8.54,8.9-8.43,5.25,.11,8.47,4.02,8.45,8.68-.03,4.4-3.16,8.35-8.69,8.55Z"></path><path d="M131.53,125.2c-4.44,.24-8.87-4.06-8.68-8.8,.2-5.01,3.8-8.27,8.35-8.41,4.3-.13,8.73,3.58,8.93,6.97,.42,7.19-4.46,10.39-8.6,10.24Z"></path></g><g><path d="M148.59,162.54c-.02-.92-.26-1.79-.5-2.67-.38-1.41-2.38-2.81-3.72-2.76-.6,.02-1.2-.05-1.82-.03-1.86,.06-3.87,1.52-4.2,3.97-.16,1.15-.29,2.29-.29,3.45,0,4.78,0,9.57,0,14.35,0,1.11-.26,2.05-1.09,2.92-.99,1.03-3.34,1.22-4.43,.09-.69-.71-1.25-1.4-1.23-2.43,0-5.25,0-10.5,0-15.75-.04-2.25,.25-4.43,1.14-6.54,1.07-2.51,2.85-4.22,5.32-5.27,2-.85,4.11-1.05,6.24-.98,2.13,.08,4.18,.58,6.1,1.52,.58,.29,1.09,.76,1.58,1.2,.27,.23,.38,.21,.65-.01,1.83-1.53,3.95-2.32,6.33-2.59,2.27-.26,4.46-.07,6.62,.54,2.16,.6,3.93,1.79,5.26,3.66,.83,1.17,1.22,2.49,1.68,3.81,.29,.84,.45,1.73,.52,2.55,.06,.74,.09,1.53,.09,2.3,0,4.92,0,9.84,0,14.76,0,1.15-.16,2.23-1.08,3.11-1.04,.99-2.22,1.22-3.47,.73-1.26-.49-2.14-1.39-2.2-2.87,0-5.54,.02-11.07,.03-16.61,0-.16,.02-.33-.13-.45-.03-.92-.27-1.79-.51-2.68-.38-1.42-2.39-2.68-3.72-2.78-1.63-.12-3.11,.04-4.48,1-.78,.54-1.12,1.34-1.39,2.15-.37,1.09-.43,2.25-.44,3.41,0,5.08,0,10.17,0,15.25,0,1.44-.5,2.56-1.76,3.36-2.09,1.32-4.95-.52-4.98-2.53,0-.08-.05-.15-.08-.23,.03-.19,.08-.37,.08-.56,0-5.26,0-10.53,0-15.79,0-.21,.08-.44-.13-.61Z"></path><path d="M27.27,141.04c.39-1.72,1.5-2.53,3.1-2.58,1.59-.05,2.71,.52,3.32,2.29,.04,.13,.04,.27,.18,.33,0,3.1,.04,6.21,0,9.31-.01,.79,.25,.95,.97,.94,2.23-.03,4.46,0,6.7,.02,2.51,.06,4.82,.8,6.93,2.13,1.2,.76,2.01,1.9,2.61,3.17,.37,.79,.68,1.62,.93,2.48,.34,1.15,.36,2.32,.39,3.49,.05,2.46,0,4.92,.02,7.38,.02,2.78-.56,5.46-2.09,7.76-1.54,2.3-3.74,3.87-6.53,4.48-.89,.19-1.79,.38-2.71,.36-.88,0-1.75,0-2.63,0-2.6-.01-4.96-.86-6.98-2.4-2.01-1.53-3.27-3.67-3.83-6.15-.27-1.19-.61-2.39-.44-3.64,.01-.33,.04-.65,.04-.98,.01-9.46,.03-18.91,.04-28.37Zm18.28,20.68c-.07-1.25-.32-2.49-1.31-3.32-.88-.74-1.99-1.09-3.16-1.14-.09-.04-.19-.12-.28-.12-2.13,0-4.25,0-6.38-.02-.55,0-.53,.31-.53,.69,0,2.13-.01,4.25,0,6.38,.02,2.29-.09,4.58,.07,6.87,.07,.23,.19,.45,.2,.69,.08,2.14,1.29,3.79,3.28,4.5,1.2,.43,2.42,.43,3.64,.22,1.11-.19,2.2-.61,2.95-1.5,.98-1.15,1.42-2.55,1.51-4.06,.17-.15,.13-.35,.13-.54,0-2.7,0-5.4,0-8.1,0-.19,.04-.39-.13-.54Z"></path><path d="M99.64,153.83c-.03-1.84,2.36-3.29,3.96-2.85,1.39,.38,2.12,1.18,2.65,2.36,.01,1.04,.03,2.07,.03,3.11,.01,4.53,.02,9.07,.03,13.6,.22,.98,.08,2.01,.49,2.96,.48,1.12,1.07,2.11,2.21,2.76,2.01,1.15,4.01,.98,6.01,.15,1.86-.78,2.52-2.46,2.83-4.29,.08-.47,.19-.94,.25-1.42,.01-4.97,.02-9.94,.03-14.9,0-.6-.03-1.19-.04-1.79,.58-2.43,3-3.21,5.12-2.2,.9,.43,1.28,1.41,1.58,2.35,0,5.79,0,11.59,0,17.38-.23,1.13-.2,2.29-.6,3.41-.62,1.75-1.33,3.45-2.64,4.78-1.7,1.72-3.8,2.71-6.18,3.14-.64,.12-1.28,.16-1.93,.18-.85,0-1.7,0-2.54,0-2.32-.07-4.48-.67-6.41-1.98-2.72-1.85-4.13-4.5-4.69-7.68-.12-.67-.09-1.34-.17-2.01,0-5.69,0-11.38,0-17.07Z"></path><path d="M92.44,176.29c.98,.31,1.86,.67,2.35,1.73,.86,1.87-.4,4.34-2.51,4.23-6.02,0-12.04,0-18.06,0-2.33,.05-4.01-2.93-2.56-5.04,1.8-2.62,3.71-5.15,5.57-7.73,1.5-2.08,2.96-4.19,4.46-6.27,1.39-1.94,2.8-3.86,4.2-5.78,.23-.45-.18-.29-.32-.29-3.51,0-7.02,0-10.52,.02-1.61,0-2.73-1.14-2.95-2.8-.17-1.33,.76-2.5,2.33-2.99,6.17,0,12.34,0,18.5,0,1.1,.5,2.01,1.15,2.15,2.49,.1,.92-.06,1.81-.56,2.52-1.01,1.43-2.07,2.84-3.1,4.26-1.54,2.12-3.05,4.27-4.59,6.39-1.28,1.75-2.56,3.51-3.8,5.29-.77,1.1-1.66,2.14-2.31,3.33-.06,.1-.22,.15-.34,.22-.24,.45,0,.47,.37,.47,3.9-.02,7.79-.02,11.69-.03Z"></path><path d="M65.39,179.93c-.36,1.52-1.31,2.4-2.83,2.73-1.84,.4-3.91-1.37-3.91-2.94-.02-8.66-.04-17.33,.02-25.99,.01-1.99,2.27-3.11,3.87-2.78,1.45,.3,2.5,1.04,2.86,2.56,0,8.81,0,17.62,0,26.42Z"></path><path d="M61.98,146.12c-2.04,.26-3.91-1.9-3.84-3.95,.08-2.17,1.71-3.77,3.8-3.74,2.26,.03,3.85,1.48,3.91,3.82,.06,2.11-1.87,4.16-3.87,3.88Z"></path></g></svg>